<svg width="511" height="512" viewBox="0 0 511 512" fill="none" xmlns="http://www.w3.org/2000/svg">
<rect width="511" height="512" rx="90" fill="url(#paint0_radial_4_87)"/>
<path d="M298 157C310.5 182 321.5 191.5 341 195.5" stroke="white" stroke-width="14" stroke-linecap="round" stroke-linejoin="round"/>
<path d="M249.5 186.5C221 214 212 250.667 211.5 269L234.5 290.5C260 285 283 277.5 311 248.5C339 219.5 349 186.5 344.5 150.5C302.5 150.5 278 159 249.5 186.5Z" stroke="white" stroke-width="14" stroke-linejoin="round"/>
<path d="M363 101.396C346.149 94.0649 327.549 90 308 90H203C126.785 90 65 151.785 65 228C65 292.154 108.778 346.081 168.089 361.543C166.221 371.153 163.94 382.242 162 390C158.8 402.8 151.333 418.667 148 425C179 419 190 412.824 211 398C235.108 380.982 243.93 372.836 250.749 366H308C384.215 366 446 304.215 446 228C446 202.45 439.057 178.522 426.954 158" stroke="white" stroke-width="14" stroke-linecap="round" stroke-linejoin="round"/>
<path d="M229.5 212.5C224.5 208 210.9 201.7 196.5 212.5C182.1 223.3 176.5 233 172 250.5H211" stroke="white" stroke-width="14"/>
<path d="M257.007 325.778L259.66 332.256L251.021 335.794L250.046 326.51L257.007 325.778ZM288.792 264.623L293.477 259.422C300.112 265.399 309.726 281.836 298.248 301.034L292.24 297.442L286.232 293.85C293.227 282.15 287.468 272.852 284.107 269.824L288.792 264.623ZM292.24 297.442L298.248 301.034C293.398 309.147 288.824 315.069 282.628 319.975C276.54 324.795 269.278 328.317 259.66 332.256L257.007 325.778L254.354 319.301C263.729 315.461 269.465 312.54 273.937 308.999C278.299 305.545 281.845 301.188 286.232 293.85L292.24 297.442ZM257.007 325.778L250.046 326.51L245.971 287.723L252.933 286.992L259.894 286.26L263.969 325.047L257.007 325.778Z" fill="white"/>
<path d="M195.5 286C183.5 298 180 304.5 180 322.5C201 324 206.5 319.5 218 307.5" stroke="white" stroke-width="14" stroke-linecap="square"/>
<circle cx="286" cy="212" r="17" stroke="white" stroke-width="14"/>
<path d="M387 111L400 72L413 111L452 124L413 137L400 176L387 137L348 124L387 111Z" fill="white" fill-opacity="0.9"/>
<defs>
<radialGradient id="paint0_radial_4_87" cx="0" cy="0" r="1" gradientUnits="userSpaceOnUse" gradientTransform="translate(256 66.5) rotate(90) scale(338 337.34)">
<stop stop-color="#0C6899"/>
<stop offset="1" stop-color="#07345D"/>
</radialGradient>
</defs>
</svg>
